Coordinates
version=1
nRows=12
nColumns=24
inDegrees=yes

Units are S.I. units (second, meters, Newtons, ...)
Angles are in degrees.

endheader
time	pelvis_tilt	pelvis_list	pelvis_rotation	pelvis_tx	pelvis_ty	pelvis_tz	hip_flexion_r	hip_adduction_r	hip_rotation_r	knee_angle_r	ankle_angle_r	subtalar_angle_r	mtp_angle_r	hip_flexion_l	hip_adduction_l	hip_rotation_l	knee_angle_l	ankle_angle_l	subtalar_angle_l	mtp_angle_l	lumbar_extension	lumbar_bending	lumbar_rotation
      3.57500000	      7.17350575	     12.41239950	     -5.12671561	     -0.15799999	      0.99600347	     -0.01138493	     19.28524826	    -12.94648906	     -3.55571350	    -28.20831407	      3.79918467	     -3.76630489	      4.68381645	     -5.84344490	     16.32787959	    -11.62200357	    -10.59429515	     10.14320543	      3.16800296	     21.87550216	    -26.60308614	    -13.41639291	     -2.32756185
      3.58000000	      7.26481556	     12.50393526	     -5.03621948	     -0.15274799	      0.99556056	     -0.01122930	     19.00526858	    -13.03751666	     -4.05138648	    -26.32027426	      3.22728928	     -2.99784219	      4.45934880	     -6.35942300	     16.42922597	    -11.46452218	    -10.48616085	     10.36250623	      3.31182132	     21.61549473	    -26.71008110	    -13.44941839	     -2.45861335
      3.58500000	      7.26593865	     12.62369038	     -4.92648104	     -0.14757788	      0.99491110	     -0.01106515	     18.83824380	    -13.13871811	     -4.49488030	    -24.46341015	      2.66887709	     -2.12980185	      4.31734682	     -6.73542949	     16.54009400	    -11.28017347	    -10.45793057	     10.66139918	      3.49631796	     21.42947736	    -26.72941032	    -13.50593741	     -2.61937409
      3.59000000	      7.33005083	     12.72418240	     -4.83051940	     -0.14233353	      0.99434083	     -0.01084291	     18.56436669	    -13.21372431	     -4.94919537	    -22.56658734	      2.10656038	     -1.27188342	      4.15985352	     -7.21164642	     16.63730797	    -11.09990600	    -10.37447196	     10.89454230	      3.64524454	     21.05349208	    -26.81243217	    -13.54880356	     -2.75140125
      3.59500000	      7.32580031	     12.86791559	     -4.70903866	     -0.13710888	      0.99361118	     -0.01062580	     18.38108414	    -13.32975980	     -5.41522727	    -20.72102402	      1.57995733	     -0.32669129	      4.07283108	     -7.59292156	     16.76444821	    -10.92381424	    -10.33502055	     11.19725675	      3.82579783	     20.75502852	    -26.82806307	    -13.62916979	     -2.93962118
      3.60000000	      7.32851998	     13.00000813	     -4.59263499	     -0.13188622	      0.99284741	     -0.01037062	     18.17733957	    -13.42047586	     -5.83840412	    -18.88094142	      1.07811666	      0.62248549	      4.01525603	     -7.98000842	     16.87622821	    -10.72922674	    -10.30085195	     11.47886197	      3.98983623	     20.40093391	    -26.85275395	    -13.69979365	     -3.10122991
      3.60500000	      7.27829542	     13.17287419	     -4.46823214	     -0.12667137	      0.99194590	     -0.01011428	     18.05688537	    -13.54790638	     -6.24766921	    -17.11213545	      0.63073871	      1.62021298	      3.98717865	     -8.29578382	     17.02196967	    -10.54889213	    -10.29315343	     11.81018876	      4.16909063	     20.15015119	    -26.82314829	    -13.80971496	     -3.30323427
      3.61000000	      7.25318495	     13.32806592	     -4.34027738	     -0.12142248	      0.99106274	     -0.00980935	     17.89128827	    -13.65156853	     -6.65596214	    -15.36660203	      0.21659771	      2.59483606	      3.96213529	     -8.65201427	     17.14631052	    -10.34363491	    -10.26875866	     12.10129926	      4.31107141	     19.81131030	    -26.82294992	    -13.90517788	     -3.49177916
      3.61500000	      7.20936119	     13.47295574	     -4.22343825	     -0.11615813	      0.99011119	     -0.00946242	     17.75288227	    -13.73070588	     -7.00883315	    -13.67974438	     -0.14508240	      3.53921703	      3.88678493	     -8.97097401	     17.25188817	    -10.18778386	    -10.29062873	     12.53472120	      4.57968699	     18.77869228	    -26.79720225	    -13.99241829	     -3.66408120
      3.62000000	      7.07209236	     13.66884634	     -4.09851535	     -0.11088786	      0.98897471	     -0.00914853	     17.76863277	    -13.86003539	     -7.34944264	    -12.13273559	     -0.42117309	      4.51926574	      3.86557994	     -9.19125577	     17.41034618	     -9.98825933	    -10.28871565	     12.80848259	      4.70016312	     18.74240984	    -26.66695942	    -14.13270479	     -3.82126243
      3.62500000	      7.02869765	     13.85948347	     -3.96292038	     -0.10559974	      0.98795841	     -0.00884417	     17.67275307	    -14.00043455	     -7.72252841	    -10.65103939	     -0.62864350	      5.47108513	      3.80912922	     -9.51451063	     17.56415203	     -9.74475791	    -10.30180639	     13.10012305	      4.78622557	     18.61457207	    -26.65056452	    -14.25610856	     -4.03872866
      3.63000000	      6.91342871	     14.02597794	     -3.84695655	     -0.10022005	      0.98682300	     -0.00849088	     17.68143328	    -14.09649757	     -8.06857506	     -9.28764070	     -0.80471708	      6.32858184	      3.73454494	     -9.78098951	     17.69199299	     -9.56546863	    -10.27536592	     13.36876185	      4.89385030	     18.49452145	    -26.53686076	    -14.36567236	     -4.20100486
